<?xml version="1.0" encoding="utf-8"?>
<!-- Generator: Adobe Illustrator 22.0.1, SVG Export Plug-In . SVG Version: 6.00 Build 0)  -->
<svg version="1.1" id="Layer_1" xmlns="http://www.w3.org/2000/svg" xmlns:xlink="http://www.w3.org/1999/xlink" x="0px" y="0px"
	 viewBox="0 0 443.7 82.3" style="enable-background:new 0 0 443.7 82.3;" xml:space="preserve">
<style type="text/css">
	.st0{clip-path:url(#SVGID_2_);fill:#F7941D;}
</style>
<g>
	<defs>
		<rect id="SVGID_1_" width="441.8" height="82.6"/>
	</defs>
	<clipPath id="SVGID_2_">
		<use xlink:href="#SVGID_1_"  style="overflow:visible;"/>
	</clipPath>
	<path class="st0" d="M434.1,42.1c-2,2.1-3.9,4.5-5.7,7.4c-1.8,2.9-3.1,6.9-3.9,12l-5.2,0.5c1.4-6.4,2.9-11.2,4.5-14.4
		c1.7-3.2,3.8-6.4,6.4-9.7c0.2-0.4,0.5-0.7,0.8-1.1l7.8-0.7C437.5,38.3,435.9,40.3,434.1,42.1 M436.9,28.3
		c1.5,4.9,2.7,10.6,3.8,17.1c1.1,6.5,1.4,12.9,1,19.2l-6.4,0.5c0.4-6.3,0-12.7-1.3-19.2s-2.8-12.2-4.4-17.1c-1.7-4.9-3-8.2-3.8-9.8
		l7.7-0.7C434.2,20.2,435.4,23.4,436.9,28.3 M428.8,55.2c2.4-1.2,3.8-1.8,4.2-1.8c0.1,0,0.1,0,0.1,0l7.8-0.7c0,0,0,0-0.1,0.1
		c-0.4,0-1.8,0.6-4.2,1.8c-2.4,1.2-5.4,3.4-9.1,6.8l-7.8,0.7C423.4,58.7,426.4,56.4,428.8,55.2 M384.3,56.9l7.7-1
		c2.3-0.3,4.9-0.2,7.8,0.2c2.9,0.4,5.5,1,8,1.6c2.4,0.7,4.2,1.4,5.1,2c1,0.6,0.8,1.1-0.5,1.2l-7.7,1l-0.1,0l0.1,0
		c1.3-0.2,1.5-0.6,0.6-1.2c-0.9-0.6-2.4-1.2-4.6-1.9c-2.2-0.7-4.7-1.2-7.4-1.6c-2.7-0.4-5.3-0.6-7.7-0.5l-2.5,0.3
		C383.4,57,383.8,56.9,384.3,56.9 M410.5,18.7c-0.4,2.9-0.9,7.2-1.6,12.7c-0.6,5.5-1.1,10.8-1.4,15.9s0,8.6,0.7,10.5l-7.7,1
		c-0.7-1.8-0.9-5.3-0.7-10.5c0.3-5.1,0.7-10.5,1.4-16c0.6-5.5,1.2-9.7,1.6-12.6c0.1-0.5,0.1-0.9,0.2-1.3l7.6-1
		C410.6,17.8,410.5,18.2,410.5,18.7 M396.3,25.8c-0.2,3-0.7,6.6-1.4,10.7s-1.5,8-2.2,11.7c-0.8,3.8-1.3,6.4-1.5,7.9l-8,1.1
		c0.2-1.9,0.8-4.8,1.7-8.8c0.7-3.7,1.4-7.5,2.2-11.5c0.7-4,1.2-7.4,1.3-10.2c0.2-2.9-0.1-4.5-0.9-4.8l8-1.1
		C396.2,21.1,396.5,22.8,396.3,25.8 M410.6,60.8c0.8-0.1,1.7-0.1,2.6,0l-5.1,0.7c-2.7,1.1-4.9,3-6.7,5.5c-1.8,2.6-2.8,5.3-3,8.1
		l-7.7,1c0.3-3.3,1.6-6.4,3.9-9.2c2.3-2.8,5-4.5,8.3-5.1L410.6,60.8z M359.7,50.2c2.7-1.2,5.3-2.4,7.7-3.6c2.4-1.3,3.9-2.1,4.4-2.6
		l4.4,1.1c-0.5,0.5-1.8,1.3-3.9,2.5c-2.2,1.2-4.5,2.3-6.9,3.5c-2.4,1.1-4.2,1.7-5.4,1.9l-6.2-0.8C355,52,357,51.4,359.7,50.2
		 M377.9,18.8c-0.3,2.8-0.6,6.6-1,11.4c-0.4,4.9-0.5,9.6-0.5,14.1c0,4.5,0.4,7.7,1.2,9.4l-7.7,1.4c-0.8-1.8-1.2-4.9-1.2-9.4
		c0-4.5,0.2-9.2,0.5-14.1c0.4-4.9,0.7-8.7,1-11.4c0-0.5,0.1-0.9,0.1-1.3l7.7-1.3C378,18,378,18.4,377.9,18.8 M364.4,22.4
		c-0.1,3-0.4,6.6-1,10.7c-0.6,4.1-1.1,8.1-1.7,11.8c-0.6,3.7-1,6.4-1.1,7.9l-8,1.4c0.2-1.8,0.6-4.8,1.3-8.8
		c0.6-3.7,1.1-7.6,1.7-11.6c0.5-4,0.9-7.4,0.9-10.3c0.1-2.9-0.3-4.5-1.1-4.8l8-1.4C364.1,17.7,364.5,19.4,364.4,22.4 M347.8,16
		l-7.5,1.5c0,0.4,0,0.8-0.1,1.3c-0.1,2.1-0.3,4.8-0.4,8.2c-0.1,1-0.1,2-0.1,3.1c-0.3,4.8-0.3,9.4-0.2,13.8c0.1,4.5,0.6,7.6,1.4,9.3
		l7.6-1.5c-0.9-1.7-1.3-4.8-1.5-9.3c-0.1-4.4-0.1-9.1,0.2-13.9c0.2-4.8,0.4-8.5,0.6-11.3C347.7,16.7,347.8,16.3,347.8,16
		 M325.5,33.9l6.1,0.6c1.2-0.2,3-0.9,5.3-2.1c2.4-1.1,4.6-2.3,6.7-3.6c2.1-1.2,3.4-2.1,3.8-2.6l-4.3-0.9c-0.5,0.5-1.9,1.4-4.3,2.7
		c-2.4,1.3-4.9,2.6-7.5,3.8C328.6,33,326.7,33.7,325.5,33.9 M332.9,16.1l-7.8,1.6c0.8,0.3,1.3,1.8,1.3,4.7c0,2.8-0.2,6.2-0.6,10.1
		c-0.4,3.9-0.8,7.8-1.3,11.4c-0.5,4-0.8,7-1,8.8l7.8-1.7c0.1-1.5,0.4-4.1,0.9-7.8c0.5-3.6,1-7.5,1.4-11.6c0.4-4.1,0.6-7.6,0.6-10.6
		C334.2,18,333.8,16.4,332.9,16.1 M313.7,28.7c0.9-0.2,2.1-0.3,3.6-0.2l-4.2,6.5c-1.5-0.1-2.6,0-3.5,0.2c-0.9,0.2-2,0.6-3.4,1.3
		l4.2-6.5C311.7,29.4,312.8,28.9,313.7,28.7 M318.4,34.5c0.3,1.7,0.5,3.3,0.4,4.8c-0.1,1.5-0.6,3.2-1.7,4.9l-0.1,0.3
		c-0.1,0.2-0.3,0.4-0.4,0.8c-0.1,0.3-0.3,0.7-0.4,1c-0.1,0.3-0.2,0.5-0.2,0.6l-4.2,6.6c0-0.1,0.1-0.4,0.3-0.7c0.2-0.3,0.3-0.7,0.5-1
		c0.2-0.4,0.3-0.6,0.4-0.7l0.2-0.4c1-1.7,1.6-3.3,1.6-4.8c0-1.5-0.1-3.1-0.4-4.8c-0.1-0.5-0.1-0.9-0.2-1.4l4.1-6.5
		C318.3,33.5,318.3,34,318.4,34.5 M316.1,13.2c0.1,0.6,0.2,1.1,0.3,1.5c0.1,0.5,0.2,1.1,0.4,1.9c0.1,0.8,0.3,2,0.4,3.8l-4.2,6.5
		c-0.1-1.7-0.2-3-0.4-3.8c-0.1-0.8-0.3-1.4-0.4-1.9c-0.1-0.4-0.2-0.9-0.3-1.4c-0.1-0.6-0.2-1.4-0.4-2.5l4.2-6.5
		C315.9,11.8,316,12.6,316.1,13.2 M312.2,18.1c-1.3,3.7-2.3,6.9-2.8,9.6c-0.5,2.6-0.3,5.4,0.5,8.2c0.8,2.8,2.6,6.4,5.3,10.6l0.5,0.4
		l-3.8,6.8l-0.5-0.4c-2.7-4.3-4.5-7.8-5.3-10.6c-0.8-2.8-1-5.6-0.5-8.2c0.5-2.6,1.4-5.8,2.8-9.6c0.5-1.3,0.9-2.7,1.5-4.3l3.8-6.8
		C313.1,15.4,312.7,16.8,312.2,18.1 M282.9,38.9c-1.3,3.6-1.8,7.2-1.6,10.8l-5.1,1.3c0.2-2.6,0.4-4.6,0.6-5.8
		c0.2-1.2,0.4-2.2,0.5-2.9c0.1-0.4,0.2-0.8,0.3-1.2c0.6-3.1,1.5-5.9,2.5-8.4c1-2.4,1.9-4.5,2.8-6c0.5-1,0.9-1.8,1.1-2.4l7.6-1.9
		C287,29.8,284.2,35.3,282.9,38.9 M288.3,14.9c2.2,4.6,4.4,10.1,6.4,16.3c2.1,6.2,3.4,12.5,4,18.9l-6.2,1.5
		c-0.6-6.3-2-12.6-4.3-18.8c-2.3-6.2-4.6-11.6-7-16.2c-2.4-4.6-4.2-7.6-5.3-9l7.6-1.9C284.4,7.2,286.1,10.2,288.3,14.9 M273.6,29.8
		c0.4,1.9,0.7,3.8,0.8,5.7c0.1,2-0.4,3.9-1.3,5.7l-0.1,0.2c-0.1,0.2-0.3,0.4-0.4,0.8c-0.1,0.3-0.3,0.7-0.4,1
		c-0.1,0.3-0.2,0.5-0.2,0.7l-3.9,6.7c0-0.1,0.1-0.4,0.2-0.7c0.2-0.3,0.3-0.7,0.5-1c0.2-0.3,0.3-0.6,0.3-0.7l0.2-0.3
		c1-1.8,1.4-3.7,1.3-5.6c-0.1-1.9-0.4-3.8-0.8-5.6c-0.1-0.5-0.2-1-0.3-1.5l3.9-6.8C273.4,28.8,273.5,29.3,273.6,29.8 M271.1,12.1
		c0.2,1,0.5,2.2,0.7,3.3c0.2,1.2,0.4,2.7,0.7,4.6l-3.9,6.8c-0.2-2-0.5-3.5-0.7-4.7c-0.2-1.2-0.4-2.2-0.7-3.2
		c-0.2-1.1-0.5-2.6-0.8-4.4l3.8-6.8C270.5,9.5,270.8,11,271.1,12.1 M267,15.3c-1.2,3.8-2,7-2.4,9.7c-0.4,2.7-0.1,5.4,0.9,8.2
		c1,2.8,2.9,6.3,5.8,10.5l0.5,0.3l-3.5,6.9l-0.5-0.3c-2.9-4.2-4.8-7.7-5.8-10.5c-1-2.8-1.2-5.5-0.9-8.2c0.4-2.7,1.2-5.9,2.4-9.7
		c0.4-1.3,0.8-2.8,1.2-4.3l3.5-6.9C267.8,12.5,267.4,14,267,15.3 M246.1,29.6c-1.5,2.4-2.9,5.2-4.1,8.4c-1.2,3.2-1.7,7.4-1.5,12.6
		l-5,1.5c0.1-6.6,0.6-11.6,1.6-15c1-3.5,2.5-7,4.4-10.7c0.2-0.4,0.4-0.8,0.6-1.2l7.5-2.2C248.6,25.2,247.5,27.4,246.1,29.6
		 M246.1,15.5c2.4,4.6,4.7,9.9,7,16.1c2.3,6.2,3.9,12.4,4.7,18.7l-6.2,1.8c-0.8-6.3-2.5-12.5-5-18.6s-5.1-11.4-7.7-15.9
		c-2.6-4.5-4.5-7.4-5.7-8.8l7.5-2.2C241.9,8,243.7,10.9,246.1,15.5 M243.4,43.4c2.1-1.6,3.4-2.5,3.8-2.6c0.1,0,0.1,0,0.1,0l7.5-2.2
		c0,0,0,0-0.1,0.1c-0.4,0.1-1.7,1-3.8,2.5c-2.1,1.6-4.6,4.4-7.6,8.4l-7.5,2.2C238.8,47.9,241.3,45,243.4,43.4 M199.8,40.3
		c1.3-4.6,3-8.6,5.3-11.8l0.1-0.3l7.4-2.3l-0.1,0.3c-3.2,3.2-5.6,7.4-7.4,12.5c-1.7,5.1-2.3,9.3-1.8,12.4l-6.1,1.9
		C197.7,49.2,198.5,44.9,199.8,40.3 M232.7,58l-5.8,1.8c-0.2-5.2-0.7-10.4-1.4-15.5c-0.7-5.1-2.1-10.3-4.1-15.7
		c-2-5.4-5.1-11.2-9.1-17.3l7.4-2.3C227.3,21.4,231.6,37.7,232.7,58 M212.3,23.3c1.8,4.4,3.2,9.2,4.5,14.5c1.2,5.3,1.9,9.3,2,12
		c0,0.2,0,0.4,0,0.6l-5.9,1.8c0.1-3.4-0.6-7.6-2-12.7c-1.4-5.1-3.2-9.8-5.3-14.1s-4.2-6.9-6.2-7.7l7.4-2.4
		C208.8,16.2,210.6,18.9,212.3,23.3 M215.5,39.5c1.3-4.6,3-8.6,5.3-11.8l0.1-0.3l6.1-2.2l-0.1,0.3c-3.1,3.2-5.3,7.4-6.7,12.5
		c-1.4,5.1-1.7,9.2-1.1,12.3l-6.1,1.9C213.4,48.4,214.3,44.1,215.5,39.5 M171.3,40.7c0.7-0.2,1.4-0.4,2.2-0.4l-4,1.4
		c-2.3,1.8-3.8,4.6-4.6,8.3c-0.8,3.7-1.3,7.5-1.5,11.5c-0.2,3.2-0.5,6-1,8.4c-0.5,2.4-1.3,3.8-2.6,4.4l-7.3,2.6
		c-0.2,0.1-0.4,0.1-0.6,0.1l1.2-0.4c1-0.8,1.7-2.4,2.1-4.6c0.4-2.3,0.7-4.9,0.9-7.9c0.2-4.4,0.9-8.6,1.8-12.7c1-4,3-6.7,6.1-8
		L171.3,40.7z M163.1,8.9c-0.6,2.9-1.2,5.8-2,8.6c-1.3,4.5-2.1,8.8-2.2,12.9c-0.2,4.1,1.4,7.7,4.5,11.1l5.4,0.2
		c-1.8-0.7-3.1-2.3-4-4.7c-0.9-2.4-0.9-5.1-0.3-8.1c0.7-3,1.6-6.1,2.9-9.4c1-3,2-6,2.8-9c0.8-3,1.1-6,0.9-8.9L163.6,0
		C163.8,3,163.6,5.9,163.1,8.9 M173.2,27.1c0.3,3.2,0.5,5.8,0.7,7.9c0.2,2,0.4,4.4,0.6,7.1c0.3,2.7,0.6,6.7,1.1,12l-5.5,1.9
		c-0.4-4.5-0.7-8-0.9-10.5c-0.1-1.1-0.2-2.2-0.3-3.2c-0.1-1.1-0.2-2.1-0.3-2.9c-0.2-1.9-0.5-4.2-0.7-6.8c-0.2-2.6-0.5-6.5-0.9-11.6
		l5.5-2C172.8,22.2,173,24.9,173.2,27.1 M142,35.9c-1.4,2.5-2.5,5.4-3.5,8.7c-1,3.3-1.2,7.5-0.6,12.7l-4.9,1.8
		c-0.4-6.6-0.2-11.6,0.5-15.1c0.8-3.5,2-7.2,3.6-11c0.1-0.4,0.3-0.9,0.5-1.3l7.3-2.8C144.2,31.3,143.2,33.7,142,35.9 M141,21.8
		c2.7,4.4,5.4,9.5,8.2,15.5c2.8,6,4.8,12.1,6.1,18.3l-6,2.2c-1.3-6.2-3.4-12.2-6.3-18.1c-2.9-5.9-5.9-11-8.8-15.3
		c-2.9-4.3-5-7.1-6.3-8.4l7.3-2.7C136.3,14.6,138.2,17.5,141,21.8 M140.4,49.9c2-1.8,3.2-2.7,3.6-2.8c0.1,0,0.1,0,0.1,0l7.3-2.8
		c0,0,0,0-0.1,0.1c-0.4,0.1-1.6,1.1-3.6,2.8c-2,1.7-4.3,4.7-7,9l-7.3,2.8C136.1,54.6,138.4,51.6,140.4,49.9 M123.9,24
		c0.3,0.8,0.7,1.6,1.2,2.3c0.5,0.8,0.9,1.4,1.2,1.8l-5.5,2.1c-0.4-0.4-0.8-1-1.2-1.8c-0.5-0.8-0.9-1.6-1.2-2.3
		c-0.3-0.8-0.5-1.3-0.4-1.7l5.5-2.2C123.4,22.7,123.5,23.2,123.9,24 M109,35.5c1.1-2,2.2-4,3.3-6c1.2-1.9,2.2-3.3,3.2-4.1l0.1,0
		l7.2-2.9c0.2-0.1,0.4-0.1,0.7-0.1l-1.4,0.5c-0.7,0.5-1.6,1.5-2.7,2.8c-1.1,1.3-2,2.5-2.8,3.6c-0.4,0.5-0.7,0.9-0.9,1.1
		c-0.3,0.4-0.8,1.2-1.5,2.1c-0.7,1-1.3,2-2,3c-0.7,1-1.2,1.8-1.5,2.4l-3.8,1.5C107.5,38.3,108.2,37,109,35.5 M121.1,38.2
		c1.5,1.5,2.7,4,3.6,7.2c0.8,3.3,1.6,7.4,2.4,12.3c0.4,2.6,0.9,5.4,1.5,8.4l-7.3,2.8c-0.6-3-1.1-5.7-1.5-8.3
		c-0.7-5-1.5-9.1-2.4-12.4c-0.8-3.3-2-5.7-3.6-7.2c-1.5-1.5-3.8-2.1-6.9-1.8l7.2-2.9C117.2,36.1,119.5,36.7,121.1,38.2 M107.8,26.1
		c0.6,4.3,1.1,9.1,1.7,14.6c0.5,5.5,1,10.1,1.3,14c0.2,2.5,0.4,4,0.5,4.6l-6.7,2.7c-0.1-0.6-0.2-2.2-0.5-4.6
		c-0.3-3.9-0.8-8.5-1.3-14c-0.5-5.5-1.1-10.3-1.7-14.6c-0.6-4.3-1.1-6.5-1.6-6.6l6.7-2.7C106.7,19.7,107.3,21.9,107.8,26.1
		 M95.8,25.1L88.8,28c0,0.4,0.1,0.8,0.2,1.3c0.3,2.1,0.6,4.8,1.1,8.1c0.1,0.9,0.3,2,0.5,3C91.2,45.2,92,49.7,93,54
		c1,4.4,2,7.3,3.1,8.8l7.1-2.9c-1.2-1.5-2.2-4.5-3.2-8.8c-1-4.3-1.8-8.9-2.5-13.7c-0.7-4.7-1.2-8.5-1.6-11.2
		C95.9,25.8,95.9,25.4,95.8,25.1 M77.4,46.9l6.1-0.6c1.1-0.4,2.7-1.4,4.8-3c2.1-1.6,4-3.1,5.9-4.8c1.9-1.6,2.9-2.7,3.2-3.2L93,35.1
		c-0.4,0.6-1.6,1.7-3.8,3.5c-2.1,1.7-4.3,3.5-6.6,5.1C80.3,45.5,78.5,46.5,77.4,46.9 M81.3,28l-7.3,3.1c0.9,0.1,1.6,1.6,2.1,4.3
		c0.5,2.7,1,6.1,1.3,10c0.4,3.9,0.7,7.8,0.9,11.5c0.3,4.1,0.5,7,0.7,8.8l7.3-3.2c-0.2-1.4-0.4-4.1-0.6-7.8
		c-0.2-3.7-0.5-7.5-0.8-11.6c-0.4-4.1-0.9-7.6-1.4-10.5C82.9,29.7,82.2,28.1,81.3,28 M69.3,36.9c1.7,3.9,2.9,7.8,3.7,11.8
		c0.8,4,0.7,7.5-0.2,10.3l-0.1,0.1l-2.5,7.3c-0.3,0.8-0.7,1.5-1.1,2.2l1.7-4.9c0.3-4.6-0.5-9.7-2.6-15.4c-2-5.7-4.3-10.1-6.8-13.4
		l2.5-7.3C65.9,30,67.7,33.1,69.3,36.9 M63.2,32.1c-0.7,4.1-1,7.6-1,10.5c0,2.9,0.6,5.7,2,8.5c1.4,2.8,3.8,6,7.3,9.8l0.5,0.3
		l-2.5,7.3l-0.5-0.3c-3.5-3.7-6-7-7.3-9.8c-1.3-2.8-2-5.6-2-8.5c0-2.9,0.4-6.4,1-10.5c0.2-1.2,0.4-2.5,0.6-3.9l2.5-7.3
		C63.6,29.6,63.4,30.9,63.2,32.1 M36.7,42.9c0.8,3.4,1.6,7,2.5,10.9c0.9,3.9,1.6,7.3,2.1,10.3c0.5,3,0.6,4.9,0.3,5.6l-6,3
		c0.3-0.7,0.2-2.6-0.3-5.6c-0.5-3-1.2-6.5-2.1-10.4c-0.9-3.9-1.7-7.5-2.5-10.9c-1-4.1-1.6-6.7-1.8-7.8l6.1-2.9
		C35.1,36.2,35.7,38.8,36.7,42.9 M46.8,69.3c-3.2,0.1-6.4,0.6-9.6,1.5c0,0,0.3-0.2,0.8-0.4c0.5-0.2,1.2-0.5,1.9-0.8
		c0.7-0.3,1.4-0.6,2-0.9c0.2-0.1,0.4-0.2,0.6-0.2l0.1,0c1.8-0.7,3.6-1.3,5.6-1.6c2-0.3,3.9-0.5,5.7-0.6c2.9-0.1,5.3-0.5,7.1-1.1
		l-7.1,3.1C52,68.8,49.7,69.2,46.8,69.3 M32.1,44.1c0.8,3.3,1.6,6.9,2.5,10.8c0.9,3.9,1.5,7.3,2.1,10.3c0.5,3,0.6,4.8,0.4,5.6
		l-6.6-34.5C30.6,37.3,31.1,39.9,32.1,44.1 M44.8,52.2c1.9,1,3.6,2.3,5.1,3.9c1.5,1.7,2.8,3.5,3.9,5.5c0.6,0.9,1.1,1.8,1.7,2.6
		c0.5,0.8,1,1.6,1.5,2.5L38.3,51.3C40.8,50.9,42.9,51.2,44.8,52.2 M48.4,50.6c1.9,1,3.6,2.3,5.1,3.9c1.5,1.7,2.8,3.5,3.9,5.4
		c0.6,0.9,1.1,1.8,1.7,2.6c0.5,0.8,1,1.7,1.5,2.6l-7.1,3.1c-0.5-0.9-1-1.7-1.5-2.5c-0.5-0.8-1.1-1.7-1.7-2.7
		c-1.1-1.9-2.4-3.7-3.8-5.4c-1.5-1.7-3.2-3-5.1-3.9c-1.9-0.9-4.1-1.2-6.5-0.9l7-3.2C44.3,49.3,46.5,49.6,48.4,50.6 M40.1,34.2
		c1.3,1,2.9,2.3,4.9,3.9c1.9,1.7,3.4,3.3,4.5,4.8c1,1.6,0.9,2.7-0.6,3.5L43.2,49c-0.4,0.3-0.9,0.5-1.4,0.8l-7,3.2
		c1.2-0.8,2.4-1.4,3.5-1.9l4.2-1.8c0.8-0.9,0.6-2.1-0.5-3.6c-1.1-1.5-2.6-3-4.4-4.5c-1.8-1.5-3.3-2.7-4.5-3.6
		c-0.7-0.5-1.1-0.8-1.2-0.9l7-3.4C39,33.4,39.4,33.7,40.1,34.2 M2.8,73.6c-1.1-3.6-1.7-7-1.6-10.3l7-3.5c-0.3,1.5-0.2,3.9,0.3,7.1
		c0.5,3.3,1.4,6.2,3,8.9c1.5,2.7,3.7,3.7,6.7,3.3l-7,3.5C6.7,80.2,3.9,77.1,2.8,73.6 M23.3,54.1c2.2,1.9,3.2,4.4,3,7.7
		c-0.1,3.3-1,6.5-2.6,9.8c-1.6,3.2-3.4,5.7-5.4,7.5l-7,3.5c2.5-1.3,4.5-3.5,6.1-6.7s2.4-6.5,2.5-9.9c0-3.4-1.1-6.1-3.4-8.2
		c-2.3-2-6.1-2.6-11.4-1.6l7-3.5C17.4,51.8,21.2,52.3,23.3,54.1 M17.6,34.8c0.7,3.4,1.2,6,1.4,7.6c0.2,1.7-0.1,3-0.7,3.9
		c-0.6,1-1.7,2.2-3.3,3.6c-0.8,0.8-1.7,1.7-2.8,2.8l-7,3.5C5.5,56,5.7,55.8,6,55.7c2.5-2,4.3-3.7,5.2-5s1.3-2.9,1.1-4.8
		c-0.2-1.9-0.8-4.8-1.9-8.8c-0.1-0.2-0.1-0.4-0.2-0.7l7-3.5C17.3,33.6,17.4,34.3,17.6,34.8 M2.4,43.5c1.1-2.5,3.1-4.5,5.8-6l7-3.5
		l0.3-0.1L14,34.6c-2.3,1.5-3.9,3.4-5,5.8C8,42.8,7.3,45.3,7,48l-7,3.5C0.4,48.6,1.2,46,2.4,43.5"/>
</g>
</svg>
